<svg xmlns="http://www.w3.org/2000/svg" width="900" height="240" viewBox="0 0 900 240" shape-rendering="geometricPrecision" text-rendering="optimizeLegibility">
  <rect width="900" height="240" rx="12" fill="#0d1117"/>
  <rect x="1" y="1" width="898" height="238" rx="11" fill="none" stroke="#30363d" stroke-width="2"/>

  <rect x="1" y="1" width="898" height="40" rx="11" fill="#161b22"/>
  <rect x="1" y="29" width="898" height="12" fill="#161b22"/>
  <line x1="1" y1="41" x2="899" y2="41" stroke="#30363d" stroke-width="1" shape-rendering="crispEdges"/>

  <circle cx="22" cy="21" r="6" fill="#f85149"/>
  <circle cx="42" cy="21" r="6" fill="#d29922"/>
  <circle cx="62" cy="21" r="6" fill="#3fb950"/>
  <text x="450" y="26" text-anchor="middle" fill="#9da7b3" font-family="Consolas, Menlo, Monaco, monospace" font-size="14">amauri@github — bash</text>

  <rect x="18" y="56" width="4" height="160" fill="#39d353"/>
  <line x1="500" y1="60" x2="500" y2="216" stroke="#30363d" stroke-width="1" shape-rendering="crispEdges"/>

  <g font-family="Consolas, Menlo, Monaco, monospace">
    <text x="38" y="80" fill="#39d353" font-size="19" font-weight="600">amauri@github:~$</text>
    <text x="219" y="80" fill="#f0f6fc" font-size="19">whoami</text>

    <text x="38" y="127" fill="#f0f6fc" font-size="29" font-weight="700">Amauri Souza Santana</text>
    <text x="38" y="161" fill="#b7c0ca" font-size="18">Software Developer · Java · Enterprise Systems</text>

    <text x="38" y="207" fill="#9da7b3" font-size="16">status</text>
    <rect x="96" y="195" width="10" height="10" rx="2" fill="#39d353"/>
    <text x="118" y="207" fill="#f0f6fc" font-size="17">building · maintaining · improving</text>

    <text x="532" y="78" fill="#39d353" font-size="16" font-weight="700">TECH_PROFILE</text>

    <text x="532" y="116" fill="#9da7b3" font-size="15">runtime</text>
    <text x="636" y="116" fill="#f0f6fc" font-size="19" font-weight="600">Java 8 → 21</text>

    <text x="532" y="148" fill="#9da7b3" font-size="15">framework</text>
    <text x="636" y="148" fill="#f0f6fc" font-size="18">Spring Boot</text>

    <text x="532" y="180" fill="#9da7b3" font-size="15">database</text>
    <text x="636" y="180" fill="#f0f6fc" font-size="18">SQL Server</text>

    <text x="532" y="212" fill="#9da7b3" font-size="15">focus</text>
    <text x="636" y="212" fill="#f0f6fc" font-size="16">Backend · Integrations · Performance</text>
  </g>
</svg>